<?xml version="1.0" encoding="UTF-8"?>
<svg width="120px" height="113px" viewBox="0 0 120 113" version="1.1" xmlns="http://www.w3.org/2000/svg" xmlns:xlink="http://www.w3.org/1999/xlink">
    <!-- Generator: Sketch 52.5 (67469) - http://www.bohemiancoding.com/sketch -->
    <title>Group 5</title>
    <desc>Created with Sketch.</desc>
    <g id="V3" stroke="none" stroke-width="1" fill="none" fill-rule="evenodd">
        <g id="-1440---Desktop---Home---V2" transform="translate(-1045.000000, -4247.000000)">
            <g id="Slide-6" transform="translate(0.000000, 3915.000000)">
                <g id="Group-8" transform="translate(180.000000, 162.000000)">
                    <g id="Content-Copy-3" transform="translate(750.000000, 110.000000)">
                        <g id="Group-5" transform="translate(115.000000, 60.000000)">
                            <g id="576993">
                                <path d="M112.73525,37.66225 C135.386,65.9825 100.345,110.19675 71.0745,87.80025 C43.36075,66.59525 10.5935,59.26925 9.539,36.3615 C8.0735,4.518 30.56775,16.60175 60.43325,4.1695 C94.10875,-9.84875 93.85425,14.0555 112.73525,37.66225 Z" id="Path" fill="#79A1E8"></path>
                                <path d="M59.9395,5.442 C64.261,5.442 67.76425,8.94525 67.76425,13.26675 L67.76425,21.75875 L46.898,21.75875 L46.898,5.442 L59.9395,5.442" id="Path" fill="#5C7BBF"></path>
                                <path d="M1.01425,13.688 C1.01425,9.13375 4.70625,5.44175 9.26025,5.44175 L59.93925,5.44175 C55.61775,5.44175 52.1145,8.945 52.1145,13.2665 L52.1145,56.129 C52.1145,60.19475 48.8185,63.49075 44.75275,63.49075 L38.442,63.49075 C35.4755,63.49075 32.714,65.00525 31.1195,67.50675 L26.5365,74.6965 L21.9535,67.50675 C20.359,65.00525 17.5975,63.49075 14.631,63.49075 L8.376,63.49075 C4.31025,63.49075 1.01425,60.19475 1.01425,56.129 L1.01425,13.688 Z" id="Path" fill="#FFFFFF"></path>
                                <path d="M59.9395,5.442 L49.79375,5.442 L1.0145,54.22125 L1.0145,56.12925 C1.0145,60.195 4.3105,63.491 8.37625,63.491 L14.63125,63.491 C17.59775,63.491 20.35925,65.0055 21.95375,67.507 L26.53675,74.69675 L31.11975,67.507 C32.71425,65.0055 35.47575,63.491 38.44225,63.491 L44.753,63.491 C48.81875,63.491 52.11475,60.195 52.11475,56.12925 L52.11475,13.267 C52.1145,8.94525 55.618,5.442 59.9395,5.442 Z" id="Path" fill="#CFDDF7"></path>
                                <path d="M59.9395,4.442 L9.2605,4.442 C4.162,4.442 0.0145,8.58975 0.0145,13.688 L0.0145,56.12925 C0.0145,60.74 3.7655,64.491 8.376,64.491 L14.631,64.49075 C17.2695,64.49075 19.69175,65.819 21.11025,68.0445 L25.69325,75.2345 C25.87675,75.5225 26.195,75.697 26.5365,75.697 C26.878,75.697 27.19625,75.52275 27.37975,75.2345 L31.96275,68.0445 C33.38125,65.81925 35.8035,64.49075 38.442,64.49075 L44.75275,64.49075 C49.3635,64.49075 53.1145,60.73975 53.1145,56.12925 L53.11425,22.759 L67.764,22.759 C68.31625,22.759 68.764,22.31125 68.764,21.759 L68.764,13.26675 C68.7645,8.40075 64.80575,4.442 59.9395,4.442 Z M44.753,62.49075 L38.44225,62.49075 C35.11675,62.49075 32.06425,64.165 30.2765,66.96925 L26.53675,72.8365 L22.797,66.96925 C21.00925,64.165 17.9565,62.49075 14.63125,62.49075 L8.37625,62.491 C4.8685,62.491 2.01475,59.637 2.01475,56.12925 L2.01475,13.688 C2.01475,9.6925 5.26525,6.442 9.26075,6.442 L54.351,6.442 C52.3765,8.062 51.11475,10.51975 51.11475,13.267 L51.115,56.12925 C51.11475,59.637 48.26075,62.49075 44.753,62.49075 Z M66.7645,20.75875 L53.11475,20.75875 L53.11475,13.26675 C53.11475,9.5035 56.1765,6.44175 59.93975,6.44175 C63.703,6.44175 66.76475,9.5035 66.76475,13.26675 L66.7645,20.75875 Z" id="Shape" fill="#4B31AA" fill-rule="nonzero"></path>
                                <circle id="Oval" fill="#F9D015" cx="27.23575" cy="28" r="14.125"></circle>
                                <path d="M17.24775,37.988 C19.804,40.544 23.33525,42.125 27.23575,42.125 C35.03675,42.125 41.36075,35.801 41.36075,28 C41.36075,24.0995 39.77975,20.56825 37.22375,18.012 L17.24775,37.988 Z" id="Path" fill="#FBB03B"></path>
                                <g id="Group" transform="translate(86.250000, 41.000000)" fill="#5C7BBF">
                                    <path d="M13.78,0.81525 C18.1015,0.81525 21.60475,4.3185 21.60475,8.64 L21.60475,17.132 L0.7385,17.132 L0.7385,0.815 L13.78,0.815" id="Path"></path>
                                </g>
                                <path d="M41.105,50.06125 C41.105,45.507 44.797,41.815 49.351,41.815 L100.03,41.815 C95.7085,41.815 92.20525,45.31825 92.20525,49.63975 L92.20525,92.50225 C92.20525,96.568 88.90925,99.864 84.8435,99.864 L78.53275,99.864 C75.56625,99.864 72.80475,101.3785 71.21025,103.88 L66.62725,111.06975 L62.04425,103.88 C60.44975,101.3785 57.68825,99.864 54.72175,99.864 L48.46675,99.864 C44.401,99.864 41.105,96.568 41.105,92.5025 L41.105,50.06125 Z" id="Path" fill="#D7ECF9"></path>
                                <path d="M100.03,41.81525 L92.17025,41.81525 L41.11425,92.87125 C41.3065,96.7655 44.5245,99.864 48.4665,99.864 L54.7215,99.864 C57.688,99.864 60.4495,101.3785 62.044,103.88 L66.627,111.06975 L71.21,103.88 C72.8045,101.3785 75.566,99.864 78.5325,99.864 L84.84325,99.864 C88.909,99.864 92.205,96.568 92.20475,92.50225 L92.20475,49.64 C92.20525,45.3185 95.7085,41.81525 100.03,41.81525 Z" id="Path" fill="#B3D4E5"></path>
                                <path d="M100.03,40.81525 L49.351,40.81525 C44.2525,40.81525 40.105,44.963 40.105,50.06125 L40.105,92.5025 C40.105,97.113 43.856,100.864 48.4665,100.864 L54.7215,100.864 C57.3605,100.864 59.7825,102.19225 61.20075,104.41775 L65.78375,111.6075 C65.96725,111.8955 66.2855,112.07 66.627,112.07 C66.9685,112.07 67.28675,111.89575 67.47025,111.6075 L72.0535,104.4175 C73.47175,102.1925 75.89375,100.864 78.53275,100.864 L84.8435,100.864 C89.454,100.864 93.205,97.113 93.205,92.5025 L93.205,59.132 L107.85475,59.132 C108.407,59.132 108.85475,58.68425 108.85475,58.132 L108.85475,49.64 C108.855,44.774 104.89625,40.81525 100.03,40.81525 Z M91.20525,92.5025 C91.20525,96.01025 88.3515,98.864 84.84375,98.864 L78.533,98.864 C75.20725,98.864 72.1545,100.53825 70.36725,103.3425 L66.62725,109.2095 L62.8875,103.34275 C61.10025,100.53825 58.0475,98.864 54.72175,98.864 L48.46675,98.864 C44.959,98.864 42.10525,96.01025 42.10525,92.5025 L42.10525,50.06125 C42.10525,46.06575 45.35575,42.81525 49.35125,42.81525 L94.4415,42.81525 C92.467,44.435 91.2055,46.89275 91.2055,49.64 L91.20525,92.5025 Z M106.855,57.132 L93.20525,57.132 L93.20525,49.64 C93.20525,45.87675 96.26675,42.81525 100.03,42.81525 C103.79325,42.81525 106.855,45.87675 106.855,49.64 L106.855,57.132 Z" id="Shape" fill="#4B31AA" fill-rule="nonzero"></path>
                                <rect id="Rectangle" fill="#F7931E" x="50.40225" y="54.8065" width="32.16675" height="10.1665"></rect>
                                <polygon id="Path" fill="#E07E1E" points="69.0125 64.973 82.569 64.973 82.569 54.8065 79.17925 54.8065"></polygon>
                                <path d="M82.56875,65.97325 L50.4025,65.97325 C49.85025,65.97325 49.4025,65.5255 49.4025,64.97325 L49.4025,54.8065 C49.4025,54.25425 49.85025,53.8065 50.4025,53.8065 L82.569,53.8065 C83.12125,53.8065 83.569,54.25425 83.569,54.8065 L83.569,64.97325 C83.56875,65.5255 83.121,65.97325 82.56875,65.97325 Z M51.40225,63.97325 L81.56875,63.97325 L81.56875,55.8065 L51.40225,55.8065 L51.40225,63.97325 Z" id="Shape" fill="#4B31AA" fill-rule="nonzero"></path>
                                <g id="Group" transform="translate(49.250000, 71.000000)" fill="#79A1E8">
                                    <path d="M33.31875,2.08325 L1.1525,2.08325 C0.60025,2.08325 0.1525,1.6355 0.1525,1.08325 C0.1525,0.531 0.60025,0.08325 1.1525,0.08325 L33.319,0.08325 C33.87125,0.08325 34.319,0.531 34.319,1.08325 C34.31875,1.6355 33.871,2.08325 33.31875,2.08325 Z" id="Path"></path>
                                    <path d="M33.31875,7.468 L1.1525,7.468 C0.60025,7.468 0.1525,7.02025 0.1525,6.468 C0.1525,5.91575 0.60025,5.468 1.1525,5.468 L33.319,5.468 C33.87125,5.468 34.319,5.91575 34.319,6.468 C34.31875,7.02025 33.871,7.468 33.31875,7.468 Z" id="Path"></path>
                                    <path d="M33.31875,12.8525 L1.1525,12.8525 C0.60025,12.8525 0.1525,12.40475 0.1525,11.8525 C0.1525,11.30025 0.60025,10.8525 1.1525,10.8525 L33.319,10.8525 C33.87125,10.8525 34.319,11.30025 34.319,11.8525 C34.31875,12.40475 33.871,12.8525 33.31875,12.8525 Z" id="Path"></path>
                                    <path d="M33.31875,18.23725 L1.1525,18.23725 C0.60025,18.23725 0.1525,17.7895 0.1525,17.23725 C0.1525,16.685 0.60025,16.23725 1.1525,16.23725 L33.319,16.23725 C33.87125,16.23725 34.319,16.685 34.319,17.23725 C34.31875,17.7895 33.871,18.23725 33.31875,18.23725 Z" id="Path"></path>
                                </g>
                                <g id="Group" transform="translate(81.500000, 17.250000)" fill="#4B31AA">
                                    <path d="M1.2355,8.5 C0.68325,8.5 0.2355,8.05225 0.2355,7.5 L0.2355,1.07425 C0.2355,0.522 0.68325,0.07425 1.2355,0.07425 C1.78775,0.07425 2.2355,0.522 2.2355,1.07425 L2.2355,7.5 C2.23575,8.05225 1.78775,8.5 1.2355,8.5 Z" id="Path"></path>
                                    <path d="M10.45,11.08975 C10.26425,11.08975 10.0765,11.03825 9.90875,10.93 C9.44475,10.6305 9.31125,10.0115 9.61075,9.5475 L12.8955,4.45775 C13.19525,3.99375 13.814,3.86025 14.278,4.15975 C14.742,4.45925 14.8755,5.07825 14.576,5.54225 L11.29125,10.632 C11.1,10.9285 10.77825,11.08975 10.45,11.08975 Z" id="Path"></path>
                                    <path d="M16.9525,18.50025 C16.58575,18.50025 16.2325,18.2975 16.05725,17.94725 C15.8105,17.453 16.01075,16.8525 16.5045,16.6055 L20.7885,14.46375 C21.28175,14.21675 21.883,14.41675 22.13025,14.911 C22.377,15.40525 22.17675,16.00575 21.683,16.25275 L17.399,18.3945 C17.2555,18.46625 17.10275,18.50025 16.9525,18.50025 Z" id="Path"></path>
                                </g>
                            </g>
                            <g id="flaticon1549281509-svg" transform="translate(13.000000, 14.000000)" fill="#4B31AA">
                                <path d="M10.1404222,35.0192499 C9.72627508,35.0192499 9.38868938,34.6816637 9.38868938,34.2655734 C9.38868938,33.8494831 9.724699,33.5118969 10.1404222,33.5118969 L18.8610326,33.5118969 C19.2751798,33.5118969 19.6111894,33.8494831 19.6111894,34.2655734 C19.6111894,34.6816637 19.2751798,35.0192499 18.8610326,35.0192499 L10.1404222,35.0192499 Z" id="Path"></path>
                                <path d="M11.109352,38.0103862 C10.6952048,38.0103862 10.3591952,37.6728001 10.3591952,37.2567097 C10.3591952,36.8406194 10.6967809,36.5030333 11.109352,36.5030333 L17.8920422,36.5030333 C18.3061894,36.5030333 18.642199,36.8406194 18.642199,37.2567097 C18.642199,37.6728001 18.3061894,38.0103862 17.8920422,38.0103862 L11.109352,38.0103862 Z" id="Path"></path>
                                <path d="M13.7942768,27.5908318 C13.7942768,28.0053996 13.4598432,28.3413414 13.0472722,28.3413414 C12.6347011,28.3413414 12.3002676,28.0052778 12.3002676,27.5908318 C12.2971154,24.4175342 12.2064904,22.0466355 11.7704599,19.8515033 C11.3391576,17.681585 10.5670569,15.6701976 9.19652801,13.1893078 C8.9964862,12.8266295 9.12621028,12.3696732 9.48567935,12.1686928 C9.8467245,11.9677124 10.3014862,12.0980452 10.5031041,12.4592008 C11.9580748,15.093932 12.7817015,17.2388191 13.2411309,19.5579501 C13.6958319,21.8472386 13.7911852,24.3060814 13.7942768,27.5908318 Z" id="Path"></path>
                                <path d="M16.7011873,27.5908318 C16.7011873,28.0053996 16.3666931,28.3413414 15.9541827,28.3413414 C15.5416722,28.3413414 15.2071781,28.0052778 15.2071781,27.5908318 C15.2103909,24.3059596 15.3056229,21.8487611 15.7603846,19.5579501 C16.2198746,17.2388191 17.0435013,15.0940538 18.498472,12.4592008 C18.6985744,12.0965226 19.1548516,11.9661898 19.5143813,12.1686928 C19.8754264,12.3696732 20.0034532,12.8281521 19.8035326,13.1893078 C18.4329431,15.6701367 17.660903,17.6831684 17.2295401,19.8515033 C16.7949645,22.0466355 16.702824,24.4175951 16.7011873,27.5908318 Z" id="Path"></path>
                                <path d="M9.62158654,13.5395009 C9.22774666,13.4138577 9.01206522,12.9899718 9.13712166,12.5942231 C9.26369356,12.1985354 9.68408445,11.9818419 10.0779849,12.1074851 C10.5999728,12.2771004 11.051643,12.5047564 11.4688817,12.7151768 L11.5094962,12.7371628 C12.1611476,13.0668925 12.7035033,13.324391 13.1066785,12.9946613 L14.02875,12.2394014 C14.34912,11.9787968 14.8212186,12.0274584 15.0805456,12.3493316 C15.3399937,12.6712047 15.2914987,13.1453966 14.9711288,13.4060621 L14.0490573,14.161322 C12.900393,15.1002659 11.9611058,14.6433705 10.8296572,14.0733779 L10.7952864,14.0576649 C10.4295736,13.8723366 10.0325815,13.6729397 9.62158654,13.5395009 Z" id="Path"></path>
                                <path d="M18.9235911,12.1074851 C19.317431,11.9803194 19.739398,12.1985963 19.8644544,12.5942231 C19.9910263,12.9899109 19.7738294,13.4138577 19.3799895,13.5395009 C18.9690552,13.6729397 18.5720631,13.8739201 18.2047136,14.0592484 L18.1704034,14.0749614 C17.0404097,14.644893 16.0996676,15.1034329 14.9510033,14.1628446 L14.0289319,13.4076456 C13.7085619,13.1469801 13.6601275,12.6727882 13.9195151,12.350915 C14.1789632,12.0290419 14.6509406,11.9803803 14.9713712,12.2409848 L15.8934427,12.9962448 C16.2966785,13.3259745 16.8373976,13.0668925 17.4906856,12.7387463 L17.5314214,12.7167602 C17.9499331,12.5047564 18.4015426,12.2771004 18.9235911,12.1074851 Z" id="Path"></path>
                                <path d="M23.9386998,4.47967023 C26.3532651,6.90556447 27.848911,10.25944 27.848911,13.9618642 C27.848911,15.409593 27.6176505,16.8085383 27.1925314,18.1197222 C26.7534093,19.4747564 26.1016973,20.7387403 25.2812228,21.8661794 C23.9043896,23.7581967 22.7870046,25.0001946 21.9196112,25.9657531 C20.3583152,27.700762 19.6738085,28.4608333 19.6738085,30.9981803 C19.6738085,31.4142706 19.3377989,31.7518568 18.9236518,31.7518568 L18.9047993,31.7518568 L14.5335828,31.7518568 L10.1420589,31.7518568 C9.72791179,31.7518568 9.39032609,31.4142706 9.39032609,30.9981803 C9.39032609,28.4859254 8.69175585,27.7181194 7.14143186,26.0113087 L7.13985577,26.0097861 L7.13827968,26.0113087 C6.261551,25.0472727 5.13319398,23.8052139 3.72192935,21.8661185 C2.90145485,20.7386794 2.24974289,19.4731729 1.81062082,18.1181387 C1.38550167,16.8085992 1.15424122,15.4080095 1.15424122,13.9619251 C1.15424122,12.1499955 1.51528637,10.4165092 2.1685138,8.83375817 L2.18257734,8.80391563 C2.8608403,7.17091949 3.84856187,5.7012656 5.06596781,4.47973113 C6.29125418,3.24875668 7.76186455,2.25323381 9.39972199,1.57178847 L9.39972199,1.57020499 C10.9750209,0.913912656 12.7004118,0.5511735 14.5039402,0.5511735 C16.3044377,0.5511735 18.0281313,0.913912656 19.6050669,1.57020499 C21.2397115,2.25165033 22.7134135,3.24869578 23.9386998,4.47967023 Z M26.3470213,13.9618642 C26.3470213,10.6755303 25.0200773,7.70010695 22.877569,5.54577986 C21.7821279,4.44507724 20.4770673,3.55954545 19.0330079,2.95971034 C17.6421112,2.38033868 16.1105184,2.06004902 14.5007274,2.06004902 C12.8925732,2.06004902 11.361041,2.38033868 9.9716597,2.95971034 L9.9716597,2.95818776 L9.96850753,2.95971034 C8.52444816,3.55954545 7.22108487,4.44507724 6.12552258,5.54577986 C5.04093227,6.635459 4.1642036,7.93555853 3.56559365,9.37068033 L3.54995401,9.41148544 C2.97486413,10.8073247 2.65449415,12.3461037 2.65449415,13.9618033 C2.65449415,15.2524629 2.8592036,16.4960443 3.23431229,17.6532041 C3.62657609,18.8574421 4.20324206,19.978669 4.92842391,20.9772371 C6.28343436,22.8394118 7.38675585,24.0532115 8.24475334,24.9983675 L8.24317726,24.9998901 C9.91225334,26.8322831 10.7421237,27.7492409 10.8718478,30.2457828 L14.5304306,30.2457828 L18.1890134,30.2457828 C18.3171614,27.7320053 19.1313921,26.8244266 20.808288,24.962191 C21.6459783,24.0311037 22.7227487,22.8330778 24.0715155,20.9802822 C24.7966367,19.9832368 25.3733633,18.8621316 25.764051,17.6578327 C26.1423119,16.4961052 26.3470213,15.2541072 26.3470213,13.9618642 Z" id="Shape" fill-rule="nonzero"></path>
                                <path d="M12.0783424,41 C11.6641952,41 11.3281856,40.6624138 11.3281856,40.2463235 C11.3281856,39.8302332 11.6641952,39.4926471 12.0783424,39.4926471 L16.9231731,39.4926471 C17.3373202,39.4926471 17.6733298,39.8302332 17.6733298,40.2463235 C17.6733298,40.6624138 17.3373202,41 16.9231731,41 L12.0783424,41 Z" id="Path"></path>
                            </g>
                        </g>
                    </g>
                </g>
            </g>
        </g>
    </g>
</svg>