<?xml version="1.0" encoding="UTF-8"?>
<svg width="124px" height="119px" viewBox="0 0 124 119" version="1.1" xmlns="http://www.w3.org/2000/svg" xmlns:xlink="http://www.w3.org/1999/xlink">
    <!-- Generator: Sketch 52.5 (67469) - http://www.bohemiancoding.com/sketch -->
    <title>576998</title>
    <desc>Created with Sketch.</desc>
    <g id="V3" stroke="none" stroke-width="1" fill="none" fill-rule="evenodd">
        <g id="-1440---Desktop---Home---V2" transform="translate(-293.000000, -4237.000000)">
            <g id="Slide-6" transform="translate(0.000000, 3915.000000)">
                <g id="Group-8" transform="translate(180.000000, 162.000000)">
                    <g id="Content" transform="translate(0.000000, 110.000000)">
                        <g id="576998" transform="translate(113.000000, 50.000000)">
                            <path d="M117.030146,46.059 C143.227028,68.6865 87.5098623,111.50925 62.805498,87.274 C30.4864291,55.56875 9.49001619,79.174 9.49001619,44.63775 C9.49001619,10.1015 17.6464049,18.909 54.2437247,3.42275 C86.158664,-10.082 85.6059352,18.9165 117.030146,46.059 Z" id="Path" fill="#79A1E8"></path>
                            <g id="Group" transform="translate(0.000000, 16.500000)" fill="#D7ECF9">
                                <path d="M4.37363563,36.6125 L57.535498,27.697 C59.2895709,27.40275 60.573749,25.89025 60.573749,24.11875 L60.573749,12.716 C60.573749,10.9445 59.2893198,9.432 57.535498,9.13775 L4.37363563,0.22275 C2.15117409,-0.15 0.125506073,1.55625 0.125506073,3.801 L0.125506073,33.0345 C0.125506073,35.279 2.15117409,36.98525 4.37363563,36.6125 Z" id="Path"></path>
                                <path d="M115.108146,36.6125 L61.9462834,27.697 C60.1922105,27.40275 58.9080324,25.89025 58.9080324,24.11875 L58.9080324,12.716 C58.9080324,10.9445 60.1924615,9.432 61.9462834,9.13775 L115.108146,0.22225 C117.330607,-0.15 119.356275,1.55625 119.356275,3.801 L119.356275,33.0345 C119.356275,35.279 117.330607,36.98525 115.108146,36.6125 Z" id="Path"></path>
                            </g>
                            <g id="Group" transform="translate(0.000000, 35.250000)" fill="#BDD8E5">
                                <path d="M0.125506073,0 L0.125506073,14.2845 C0.125506073,16.52925 2.15117409,18.23525 4.37363563,17.8625 L57.535498,8.947 C59.2895709,8.65275 60.573749,7.14025 60.573749,5.36875 L60.573749,0 L0.125506073,0 Z" id="Path"></path>
                                <path d="M58.9080324,0 L58.9080324,5.369 C58.9080324,7.1405 60.1924615,8.653 61.9462834,8.94725 L115.108146,17.86275 C117.330607,18.2355 119.356275,16.52925 119.356275,14.2845 L119.356275,0 L58.9080324,0 Z" id="Path"></path>
                            </g>
                            <path d="M37.8124696,60.9575 C37.2276113,60.47 37.1497976,59.6025 37.6392713,59.02 C38.1287449,58.4375 38.9997571,58.35975 39.5846154,58.8475 C40.1694737,59.335 40.2472874,60.2025 39.7578138,60.785 C39.4842105,61.11 39.0926316,61.2775 38.6985425,61.2775 C38.3847773,61.27725 38.0710121,61.17225 37.8124696,60.9575 Z M79.5786316,60.71475 C79.0891579,60.13225 79.1619514,59.26475 79.7440486,58.77725 C80.3289069,58.28725 81.20017,58.35975 81.6921538,58.94225 C82.1813765,59.52225 82.1060729,60.38975 81.5239757,60.87975 C81.2654332,61.09725 80.9491579,61.20225 80.6353927,61.20225 C80.2435628,61.2025 79.8519838,61.03725 79.5786316,60.71475 Z M33.6130364,56.7925 C33.1210526,56.2125 33.1963563,55.345 33.7787045,54.855 C34.3610526,54.365 35.2320648,54.44 35.7240486,55.02 C36.2160324,55.59975 36.1407287,56.4675 35.5583806,56.9575 C35.2998381,57.175 34.9835628,57.28 34.6697976,57.28 C34.2757085,57.28 33.8866397,57.115 33.6130364,56.7925 Z M83.762753,56.87225 C83.1804049,56.385 83.1023401,55.51475 83.5918138,54.93475 C84.0812874,54.3525 84.9522996,54.27475 85.5371579,54.7625 C86.1195061,55.25 86.1973198,56.1175 85.7080972,56.7 C85.4342429,57.025 85.042915,57.1925 84.6485749,57.1925 C84.3350607,57.19225 84.0212955,57.0875 83.762753,56.87225 Z M30.1992713,51.9675 C29.8152227,51.30975 30.0411336,50.47 30.6987854,50.08725 C31.3589474,49.70475 32.2023482,49.92725 32.5863968,50.58475 C32.9704453,51.23975 32.7470445,52.08225 32.0868826,52.4645 C31.868502,52.59225 31.6300405,52.652 31.3940891,52.652 C30.9196761,52.65225 30.4553036,52.4075 30.1992713,51.9675 Z M87.2191903,52.365 C86.5590283,51.9875 86.3331174,51.145 86.7146559,50.4875 C87.0959433,49.82975 87.9395951,49.605 88.5997571,49.9825 C89.259919,50.3625 89.48583,51.205 89.1042915,51.86275 C88.8507692,52.30275 88.3866478,52.55025 87.9094737,52.55025 C87.6737733,52.55 87.4375709,52.49 87.2191903,52.365 Z M27.6791093,46.625 C27.4180567,45.91225 27.7845344,45.1225 28.499919,44.85975 C29.2153036,44.59975 30.008502,44.96475 30.2720648,45.67975 C30.5356275,46.39225 30.1666397,47.18225 29.4512551,47.44225 C29.2931174,47.49975 29.1324696,47.52725 28.974332,47.52725 C28.4120648,47.52725 27.8849393,47.1825 27.6791093,46.625 Z M89.8400081,47.3325 C89.1221134,47.0725 88.7531255,46.2825 89.011417,45.56975 C89.2699595,44.855 90.0631579,44.4875 90.7813036,44.74475 C91.4966883,45.00475 91.8654251,45.79225 91.6071336,46.50725 C91.4035628,47.06475 90.8741781,47.41225 90.3094008,47.41225 C90.1535223,47.41225 89.9928745,47.3875 89.8400081,47.3325 Z M26.1353846,40.925 C26.0023482,40.1775 26.5018623,39.46225 27.2523887,39.32975 C28.002915,39.1975 28.7208097,39.69475 28.8538462,40.44225 C28.9868826,41.19225 28.4848583,41.905 27.7368421,42.03725 C27.6540081,42.0525 27.5736842,42.06 27.4933603,42.06 C26.8357085,42.06 26.2533603,41.58975 26.1353846,40.925 Z M91.5340891,41.92 C90.7835628,41.79 90.2790283,41.0775 90.4095547,40.33 C90.540081,39.58 91.2554656,39.08 92.0059919,39.21 C92.7565182,39.34 93.2610526,40.0525 93.1305263,40.8 C93.0150607,41.4675 92.4302024,41.94 91.7725506,41.94 C91.6922267,41.94 91.614413,41.9325 91.5340891,41.92 Z M25.6107692,35.04725 C25.6107692,35.03225 25.6107692,35.01725 25.6107692,35.00225 C25.6107692,34.98975 25.6107692,34.97475 25.6107692,34.96225 C25.6107692,34.20225 26.2282591,33.58725 26.991336,33.58725 C27.7519028,33.58725 28.3719028,34.20225 28.3719028,34.96225 C28.3719028,34.97475 28.3693927,34.98975 28.3693927,35.00225 C28.3693927,35.01475 28.3719028,35.02725 28.3719028,35.03975 C28.3719028,35.79975 27.7569231,36.41475 26.9938462,36.41725 C26.2307692,36.42 25.6107692,35.805 25.6107692,35.04725 Z M90.8741781,34.9225 C90.871417,34.16525 91.4889069,33.5475 92.2519838,33.5475 C93.0150607,33.545 93.6325506,34.1625 93.6325506,34.92 C93.6353117,35.68 93.0175709,36.2975 92.2547449,36.2975 C91.491668,36.29725 90.8741781,35.68225 90.8741781,34.9225 Z M27.2423482,30.675 C26.4918219,30.545 25.9897976,29.82975 26.1203239,29.0825 C26.2508502,28.335 26.9687449,27.835 27.7192713,27.96475 C28.4697976,28.09725 28.9718219,28.81 28.8412955,29.55725 C28.7233198,30.22475 28.1409717,30.69475 27.4833198,30.69475 C27.402996,30.69475 27.3226721,30.6875 27.2423482,30.675 Z M90.397004,29.52 C90.2639676,28.77 90.7659919,28.05725 91.5165182,27.925 C92.2670445,27.795 92.9824291,28.2925 93.1154656,29.0425 C93.248502,29.79 92.7464777,30.5025 91.9959514,30.635 C91.9156275,30.6475 91.8350526,30.655 91.7549798,30.655 C91.0973279,30.655 90.5149798,30.185 90.397004,29.52 Z M28.4748178,25.14 C27.7594332,24.8825 27.3904453,24.09275 27.651498,23.38 C27.9125506,22.66525 28.7032389,22.2975 29.4211336,22.555 C30.1365182,22.8175 30.5055061,23.605 30.2444534,24.32 C30.0411336,24.8775 29.511498,25.225 28.9467206,25.225 C28.7910931,25.22475 28.6304453,25.1975 28.4748178,25.14 Z M88.9863158,24.2825 C88.722753,23.56975 89.0917409,22.78 89.8073765,22.52 C90.5250202,22.25725 91.3159595,22.625 91.5795223,23.33725 C91.8405749,24.05225 91.471587,24.83975 90.7562024,25.1025 C90.6005749,25.16 90.4399271,25.185 90.2817895,25.185 C89.7192713,25.185 89.1896356,24.83975 88.9863158,24.2825 Z M30.6636437,19.905 C30.0034818,19.52475 29.7775709,18.685 30.1591093,18.02725 C30.5406478,17.36975 31.3840486,17.145 32.0442105,17.52475 C32.7043725,17.905 32.9302834,18.74475 32.5487449,19.40225 C32.2927126,19.845 31.8283401,20.08975 31.3539271,20.08975 C31.1179757,20.08975 30.8795142,20.03 30.6636437,19.905 Z M86.677004,19.3725 C86.2932065,18.71475 86.5188664,17.875 87.1790283,17.49475 C87.8391903,17.1125 88.6825911,17.33725 89.0641296,17.99225 C89.4481781,18.64975 89.2225182,19.49225 88.5648664,19.8725 C88.3464858,19.9975 88.1080243,20.05725 87.8718219,20.05725 C87.3948988,20.05725 86.9330364,19.8125 86.677004,19.3725 Z M33.7310121,15.13 C33.148664,14.6425 33.0733603,13.775 33.562834,13.1925 C34.0523077,12.61 34.9233198,12.535 35.5081781,13.0225 C36.0905263,13.5125 36.16583,14.38 35.6763563,14.96 C35.402753,15.285 35.0111741,15.4525 34.6195951,15.4525 C34.30583,15.4525 33.9895547,15.345 33.7310121,15.13 Z M83.5443725,14.935 C83.0548988,14.3525 83.1276923,13.4875 83.7125506,12.9975 C84.2946478,12.50725 85.1659109,12.5825 85.6578947,13.165 C86.1498785,13.74475 86.0718138,14.6125 85.4897166,15.1025 C85.2311741,15.31725 84.9148988,15.425 84.6011336,15.425 C84.2095547,15.425 83.8179757,15.25725 83.5443725,14.935 Z M37.5840486,10.95475 C37.0920648,10.375 37.1673684,9.50725 37.7522267,9.01725 C38.337085,8.53 39.205587,8.605 39.6975709,9.1875 C40.1870445,9.76725 40.1117409,10.635 39.5293927,11.1225 C39.2683401,11.33975 38.9545749,11.44475 38.6408097,11.44475 C38.2467206,11.44475 37.8551417,11.28 37.5840486,10.95475 Z M79.6888259,11.1025 C79.1039676,10.6125 79.028664,9.7475 79.5181377,9.165 C80.0076113,8.5825 80.8786235,8.50725 81.4634818,8.99475 C82.0483401,9.48225 82.1236437,10.34975 81.63417,10.93225 C81.3605668,11.25475 80.9689879,11.42225 80.5748988,11.42225 C80.2636437,11.42225 79.9473684,11.3175 79.6888259,11.1025 Z M42.0997571,7.505 C41.7182186,6.85 41.9416194,6.0075 42.6017814,5.6275 C43.2619433,5.245 44.1078543,5.47 44.4893927,6.1275 C44.8709312,6.785 44.6450202,7.6275 43.9873684,8.00725 C43.7689879,8.13225 43.5305263,8.19225 43.297085,8.19225 C42.8201619,8.19225 42.3557895,7.94475 42.0997571,7.505 Z M75.22583,7.99 C74.565668,7.60975 74.3400081,6.76725 74.7212955,6.10975 C75.102834,5.45225 75.9462348,5.2275 76.6091579,5.60725 C76.6091579,5.60725 76.6091579,5.60725 76.6063968,5.60725 C77.2665587,5.9875 77.4924696,6.82725 77.1134413,7.4875 C76.8571579,7.9275 76.3930364,8.175 75.9158623,8.175 C75.6826721,8.175 75.4442105,8.115 75.22583,7.99 Z M47.1476113,4.89 C46.8865587,4.1775 47.2555466,3.3875 47.9709312,3.1275 C48.6863158,2.8675 49.4795142,3.235 49.7405668,3.9475 C50.0016194,4.66225 49.6326316,5.45 48.917247,5.71 L48.917247,5.7125 C48.7616194,5.7675 48.6009717,5.795 48.442834,5.795 C47.8805668,5.795 47.3509312,5.4475 47.1476113,4.89 Z M70.2911822,5.6975 C69.5732874,5.4375 69.2042996,4.65 69.4625911,3.935 C69.7236437,3.22225 70.5168421,2.8525 71.2324777,3.1125 C71.9501215,3.3725 72.3191093,4.15975 72.0580567,4.875 C71.8547368,5.4325 71.3251012,5.78 70.7603239,5.78 C70.6046964,5.78 70.4465587,5.755 70.2911822,5.6975 Z M52.577004,3.1925 C52.4439676,2.4425 52.9459919,1.73 53.6965182,1.6 C54.4495547,1.46775 55.1649393,1.96775 55.2954656,2.715 C55.428502,3.465 54.9264777,4.17775 54.1759514,4.3075 C54.0956275,4.32275 54.0153036,4.33 53.9349798,4.33 C53.2773279,4.32975 52.6949798,3.86 52.577004,3.1925 Z M65.0297166,4.3025 C64.2794413,4.17 63.7746559,3.46 63.9076923,2.71 C64.0382186,1.9625 64.7536032,1.4625 65.5041296,1.5925 C66.2546559,1.7225 66.7566802,2.435 66.6261538,3.18225 C66.5106883,3.8525 65.92583,4.3225 65.2681781,4.3225 C65.1881053,4.3225 65.1100405,4.315 65.0297166,4.3025 Z M58.2222672,2.4625 C58.2197571,1.705 58.837247,1.0875 59.6003239,1.0875 C60.3634008,1.0875 60.9808907,1.7025 60.9808907,2.4625 C60.9836518,3.22 60.3634008,3.8375 59.602834,3.8375 C58.8397571,3.8375 58.2222672,3.2225 58.2222672,2.4625 Z" id="Shape" fill="#4B31AA" fill-rule="nonzero"></path>
                            <polygon id="Path" fill="#FFFFFF" points="78.2081053 113.047 41.0357166 113.047 45.4477571 38.7845 73.7960648 38.7845"></polygon>
                            <polygon id="Path" fill="#CFDDF7" points="42.2147206 93.20575 41.0357166 113.047 78.2081053 113.047 75.0842591 60.4685"></polygon>
                            <g id="Group" transform="translate(42.421053, 50.500000)" fill="#7693DD">
                                <polygon id="Path" points="1.27765182 17.72425 32.5176194 7.5165 32.075587 0.07625 1.73725506 9.98925"></polygon>
                                <polygon id="Path" points="0.100153846 37.54525 33.6504372 26.5825 33.2084049 19.14225 0.559757085 29.81025"></polygon>
                            </g>
                            <g id="Group" transform="translate(41.165992, 69.500000)" fill="#5C7BBF">
                                <polygon id="Path" points="34.4634656 0.14225 19.943919 4.8865 8.60996761 16.17475 34.905498 7.58275"></polygon>
                                <polygon id="Path" points="0.177716599 38.36625 36.0380648 26.64875 35.5960324 19.20825 0.637068826 30.63125"></polygon>
                            </g>
                            <rect id="Rectangle" fill="#FBB03B" x="40.5201377" y="33.71975" width="38.2040486" height="16.47625"></rect>
                            <path d="M43.9148259,34.9625 C43.9148259,34.9625 48.939587,24.443 59.6219109,24.443 C70.4485668,24.443 75.328996,34.9625 75.328996,34.9625 C75.328996,34.9625 70.2080972,45.482 59.6219109,45.482 C49.0357247,45.482 43.9148259,34.9625 43.9148259,34.9625 Z" id="Path" fill="#FFFFFF"></path>
                            <ellipse id="Oval" fill="#79A1E8" cx="59.6219109" cy="34.9625" rx="8.94105263" ry="8.905"></ellipse>
                            <path d="M66.2044534,28.93775 L53.5727692,41.5185 C55.1649393,42.9765 57.288753,43.8675 59.6219109,43.8675 C64.5598219,43.8675 68.5627126,39.88075 68.5627126,34.96275 C68.5629636,32.6385 67.6683563,30.52325 66.2044534,28.93775 Z" id="Path" fill="#698DCC"></path>
                            <ellipse id="Oval" fill="#473CBA" cx="59.6219109" cy="34.9625" rx="3.32013765" ry="3.30675"></ellipse>
                            <ellipse id="Oval" fill="#E1F0FA" cx="58.5232308" cy="33.8085" rx="1" ry="1"></ellipse>
                            <rect id="Rectangle" fill="#F9D015" x="34.657498" y="107.931" width="49.9290769" height="9.8635"></rect>
                            <polygon id="Path" fill="#FBB03B" points="84.5863239 107.93125 70.059749 107.93125 60.1563158 117.7945 84.5863239 117.7945"></polygon>
                            <g id="Group" transform="translate(33.635628, 13.500000)" fill="#4B31AA">
                                <path d="M25.9862834,25.76925 C28.3708988,25.76925 30.3104696,23.83725 30.3104696,21.46225 C30.3104696,19.0875 28.3706478,17.1555 25.9862834,17.1555 C23.601919,17.1555 21.6620972,19.0875 21.6620972,21.46225 C21.6620972,23.837 23.601919,25.76925 25.9862834,25.76925 Z M25.9862834,19.15575 C27.2631822,19.15575 28.3023725,20.1905 28.3023725,21.4625 C28.3023725,22.7345 27.2631822,23.7695 25.9862834,23.7695 C24.7091336,23.7695 23.6701943,22.7345 23.6701943,21.4625 C23.6701943,20.1905 24.7091336,19.15575 25.9862834,19.15575 Z" id="Shape" fill-rule="nonzero"></path>
                                <path d="M50.9509474,93.43125 L45.2148178,93.43125 L41.9037166,37.6965 L45.0883077,37.6965 C45.6427935,37.6965 46.0923563,37.24875 46.0923563,36.6965 L46.0923563,20.22 C46.0923563,19.66775 45.6427935,19.22 45.0883077,19.22 L41.5789069,19.22 C39.5753279,16.06275 34.5831984,9.94325 25.9862834,9.94325 C17.1709879,9.94325 12.1118381,16.19775 10.2377814,19.22 C10.250332,19.10375 10.2182024,19.3355 10.2377814,19.22 L6.88425911,19.22 C6.32977328,19.22 5.88021053,19.66775 5.88021053,20.22 L5.88021053,36.69625 C5.88021053,37.2485 6.32977328,37.69625 6.88425911,37.69625 L10.0688502,37.69625 L6.75749798,93.431 L1.02161943,93.431 C0.467133603,93.431 0.0175708502,93.87875 0.0175708502,94.431 L0.0175708502,104.2945 C0.0175708502,104.84675 0.467133603,105.2945 1.02161943,105.2945 L50.9506964,105.2945 C51.5051822,105.2945 51.9547449,104.84675 51.9547449,104.2945 L51.9547449,94.431 C51.954996,93.879 51.5054332,93.43125 50.9509474,93.43125 Z M43.2032065,93.43125 L13.7908583,93.43125 L42.6431984,84.00375 L43.2032065,93.43125 Z M40.5590445,21.453 C39.6960648,22.97575 36.4201053,28.13725 30.7437166,30.15825 C33.831919,28.4755 35.9313846,25.20875 35.9313846,21.4625 C35.9313846,17.64425 33.749336,14.326 30.5634899,12.6735 C36.4615223,14.6225 39.7148907,19.9075 40.5590445,21.453 Z M33.9232874,21.4625 C33.9232874,25.8215 30.3626802,29.3675 25.9862834,29.3675 C21.6098866,29.3675 18.0492794,25.82125 18.0492794,21.4625 C18.0492794,17.10375 21.6098866,13.55775 25.9862834,13.55775 C30.3626802,13.55775 33.9232874,17.10375 33.9232874,21.4625 Z M21.3222267,12.71775 C18.1833198,14.38525 16.0411822,17.67875 16.0411822,21.46225 C16.0411822,25.2085 18.1406478,28.47525 21.2288502,30.158 C15.5579838,28.139 12.2827773,22.9855 11.4160324,21.45725 C12.2744939,19.915 15.5379028,14.69925 21.3222267,12.71775 Z M7.8885587,35.69625 L7.8885587,21.22 L9.30803239,21.22 C9.25130364,21.44575 9.27238866,21.68575 9.37605668,21.89875 C9.59619433,22.3515 14.8988259,32.982 25.9865344,32.982 C37.0739919,32.982 42.3766235,22.35125 42.5970121,21.89875 C42.7006802,21.68575 42.7210121,21.446 42.6640324,21.22 L44.0842591,21.22 L44.0842591,35.69625 L7.8885587,35.69625 Z M39.9357814,38.431 L40.2550688,43.80675 L11.1527206,53.316 L11.4848097,47.72725 L39.9357814,38.431 Z M11.6123239,45.58075 L12.0807126,37.69625 L35.7423725,37.69625 L11.6123239,45.58075 Z M40.3778138,45.8715 L40.9458543,55.4325 L10.4345749,65.40175 L11.0252065,55.4625 L40.3778138,45.8715 Z M10.3070607,67.54825 L41.0683482,57.497 L41.3876356,62.8725 L9.97522267,73.13675 L10.3070607,67.54825 Z M9.84745749,75.28325 L41.5103806,64.93725 L42.0784211,74.49825 L9.25707692,85.2225 L9.84745749,75.28325 Z M9.12956275,87.36925 L42.201166,76.56325 L42.5204534,81.939 L8.79747368,92.958 L9.12956275,87.36925 Z M49.9468988,103.29475 L2.02591903,103.29475 L2.02591903,95.43125 L49.9468988,95.43125 L49.9468988,103.29475 Z" id="Shape" fill-rule="nonzero"></path>
                                <path d="M25.9862834,7.5245 C25.4317976,7.5245 24.9822348,7.07675 24.9822348,6.5245 L24.9822348,1.1915 C24.9822348,0.63925 25.4317976,0.1915 25.9862834,0.1915 C26.5407692,0.1915 26.990332,0.63925 26.990332,1.1915 L26.990332,6.5245 C26.990332,7.07675 26.5410202,7.5245 25.9862834,7.5245 Z" id="Path"></path>
                                <path d="M15.5343887,9.302 C15.2492389,9.302 14.9660972,9.18175 14.7672955,8.948 L11.1785749,4.72375 C10.8203806,4.30225 10.8733441,3.671 11.2965506,3.31425 C11.7195061,2.9575 12.3533117,3.01025 12.7115061,3.43175 L16.3002267,7.656 C16.6584211,8.0775 16.6054575,8.70875 16.182251,9.0655 C15.9939919,9.22425 15.7635628,9.302 15.5343887,9.302 Z" id="Path"></path>
                                <path d="M9.60472874,16.4125 C9.48574899,16.4125 9.36501215,16.39125 9.24728745,16.3465 L4.56691498,14.569 C4.04882591,14.37225 3.78902834,13.79425 3.9865749,13.2785 C4.18412146,12.76275 4.76421053,12.50425 5.28255061,12.7005 L9.96292308,14.478 C10.4810121,14.67475 10.7408097,15.25275 10.5432632,15.7685 C10.3903968,16.1675 10.0091093,16.4125 9.60472874,16.4125 Z" id="Path"></path>
                                <path d="M36.4381781,9.302 C36.209004,9.302 35.9788259,9.22425 35.7900648,9.0655 C35.3666073,8.70875 35.3141457,8.07775 35.6720891,7.656 L39.2608097,3.43175 C39.619004,3.01025 40.2525587,2.95775 40.6760162,3.31425 C41.0994737,3.671 41.1519352,4.302 40.7939919,4.72375 L37.2052713,8.948 C37.0067206,9.18175 36.7233279,9.302 36.4381781,9.302 Z" id="Path"></path>
                                <path d="M42.3678381,16.4125 C41.9634575,16.4125 41.58217,16.16725 41.4295547,15.7685 C41.2320081,15.25275 41.4918057,14.67475 42.0098947,14.478 L46.6902672,12.7005 C47.2083563,12.50425 47.7884453,12.76275 47.9859919,13.2785 C48.1835385,13.79425 47.9237409,14.37225 47.4056518,14.569 L42.7252794,16.3465 C42.6075547,16.39125 42.4868178,16.4125 42.3678381,16.4125 Z" id="Path"></path>
                            </g>
                        </g>
                    </g>
                </g>
            </g>
        </g>
    </g>
</svg>