<?xml version="1.0" encoding="UTF-8"?>
<svg width="128px" height="106px" viewBox="0 0 128 106" version="1.1" xmlns="http://www.w3.org/2000/svg" xmlns:xlink="http://www.w3.org/1999/xlink">
    <!-- Generator: Sketch 52.5 (67469) - http://www.bohemiancoding.com/sketch -->
    <title>Group 4</title>
    <desc>Created with Sketch.</desc>
    <g id="V3" stroke="none" stroke-width="1" fill="none" fill-rule="evenodd">
        <g id="-1440---Desktop---Home---V2" transform="translate(-666.000000, -4237.000000)">
            <g id="Slide-6" transform="translate(0.000000, 3915.000000)">
                <g id="Group-8" transform="translate(180.000000, 162.000000)">
                    <g id="Content-Copy-2" transform="translate(375.000000, 110.000000)">
                        <g id="Group-4" transform="translate(111.000000, 50.000000)">
                            <g id="576909">
                                <path d="M32.2120858,85.9405 C-5.16491228,88.9655 3.84249513,13.2655 41.3192982,12.6155 C90.348538,11.7655 98.8818713,-7.0595 115.674074,3.0405 C135.385575,14.9155 128.499025,29.7405 112.779727,69.8405 C99.0814815,104.8405 77.0245614,82.3155 32.2120858,85.9405 Z" id="Path" fill="#79A1E8"></path>
                                <path d="M96.3617934,29.2155 L11.0479532,29.2155 C5.52510572,29.2155 1.04795322,33.6926525 1.04795322,39.2155 L1.04795322,104.0655 L95.5189084,104.0655 C101.041756,104.0655 105.518908,99.5883475 105.518908,94.0655 L105.518908,38.3905 C105.518908,33.3155 101.426901,29.2155 96.3617934,29.2155 Z" id="Path" fill="#D7ECF9"></path>
                                <path d="M1.02300195,105.0905 C0.748538012,105.0905 0.499025341,104.9905 0.299415205,104.7905 C0.0998050682,104.5905 0,104.3405 0,104.0655 L0,29.2155 C0,28.6405 0.474074074,28.1905 1.02300195,28.1905 L96.3368421,28.1905 C99.0565302,28.1905 101.626511,29.2405 103.547758,31.1905 C105.469006,33.1155 106.54191,35.6905 106.54191,38.4155 L106.54191,104.0905 C106.54191,104.6655 106.067836,105.1155 105.518908,105.1155 L1.02300195,105.0905 Z M2.07095517,30.2405 L2.07095517,103.0155 L104.495906,103.0155 L104.495906,38.3655 L105.518908,38.3655 L104.495906,38.3655 C104.495906,36.1905 103.647563,34.1405 102.125536,32.6155 C100.578558,31.0655 98.5575049,30.2405 96.3867446,30.2405 L2.07095517,30.2405 Z" id="Shape" fill="#4B31AA" fill-rule="nonzero"></path>
                                <path d="M6.18791423,43.5405 C6.18791423,38.5905 10.180117,34.5905 15.1204678,34.5905 L95.6631579,34.5905 L95.6631579,97.9405 L6.16296296,97.9405 L6.18791423,43.5405 Z" id="Path" fill="#FFFFFF"></path>
                                <polygon id="Path" fill="#CFDDF7" opacity="0.334402902" points="94.7898635 35.4655 25.7746589 96.8405 94.7898635 96.8405"></polygon>
                                <path d="M95.6631579,98.9655 L6.16296296,98.9655 C5.58908382,98.9655 5.13996101,98.4905 5.13996101,97.9405 L5.13996101,43.5405 C5.13996101,40.8655 6.18791423,38.3655 8.05925926,36.4655 C9.93060429,34.5905 12.4506823,33.5405 15.1204678,33.5405 L95.6631579,33.5405 C96.237037,33.5405 96.6861598,34.0155 96.6861598,34.5655 L96.6861598,97.9155 C96.7111111,98.5155 96.237037,98.9655 95.6631579,98.9655 Z M7.21091618,96.8905 L94.6401559,96.8905 L94.6401559,35.6155 L15.1204678,35.6155 C12.9996101,35.6155 11.02846,36.4405 9.53138402,37.9405 C8.03430799,39.4405 7.21091618,41.4155 7.21091618,43.5405 L6.18791423,43.5405 L7.21091618,43.5405 L7.21091618,96.8905 Z" id="Shape" fill="#4B31AA" fill-rule="nonzero"></path>
                                <path d="M66.4951267,25.9655 L60.4319688,25.9655 C60.357115,21.9155 57.0385965,18.6405 52.97154,18.6405 C48.9044834,18.6405 45.5859649,21.9155 45.5111111,25.9655 L39.7473684,25.9655 C38.7243665,25.9655 37.9009747,26.7905 37.9009747,27.8155 L37.9009747,37.4655 C37.9009747,38.4905 38.7243665,39.3155 39.7473684,39.3155 L66.4701754,39.3155 C67.4931774,39.3155 68.3165692,38.4905 68.3165692,37.4655 L68.3165692,27.8155 C68.3415205,26.7905 67.5181287,25.9655 66.4951267,25.9655 Z M52.9964912,28.0655 C51.9235867,28.0655 51.0502924,27.1905 51.0502924,26.1155 C51.0502924,25.0405 51.9235867,24.1655 52.9964912,24.1655 C54.0693957,24.1655 54.9426901,25.0405 54.9426901,26.1155 C54.9426901,27.1905 54.0693957,28.0655 52.9964912,28.0655 Z" id="Shape" fill="#F9D015" fill-rule="nonzero"></path>
                                <path d="M66.4951267,40.3405 L39.7723197,40.3405 C38.1754386,40.3405 36.902924,39.0405 36.902924,37.4655 L36.902924,27.8155 C36.902924,26.2155 38.2003899,24.9405 39.7723197,24.9405 L44.5879142,24.9405 C45.1617934,20.8155 48.7547758,17.6155 52.9964912,17.6155 C57.2382066,17.6155 60.8311891,20.8155 61.4050682,24.9405 L66.4951267,24.9405 C68.0920078,24.9405 69.3645224,26.2405 69.3645224,27.8155 L69.3645224,37.4655 C69.3894737,39.0655 68.0920078,40.3405 66.4951267,40.3405 Z M39.7723197,26.9905 C39.3231969,26.9905 38.9489279,27.3655 38.9489279,27.8155 L38.9489279,37.4655 C38.9489279,37.9155 39.3231969,38.2905 39.7723197,38.2905 L66.4951267,38.2905 C66.9442495,38.2905 67.3185185,37.9155 67.3185185,37.4655 L67.3185185,27.8155 C67.3185185,27.3655 66.9442495,26.9905 66.4951267,26.9905 L60.4319688,26.9905 C59.8580897,26.9905 59.4089669,26.5405 59.4089669,25.9655 C59.3341131,22.4905 56.4647173,19.6405 52.9964912,19.6405 C49.5282651,19.6405 46.6339181,22.4655 46.5840156,25.9655 C46.5840156,26.5405 46.1099415,26.9905 45.5610136,26.9905 L39.7723197,26.9905 Z M52.9964912,29.1155 C51.3497076,29.1155 50.0023392,27.7655 50.0023392,26.1155 C50.0023392,24.4655 51.3497076,23.1155 52.9964912,23.1155 C54.6432749,23.1155 55.9906433,24.4655 55.9906433,26.1155 C55.965692,27.7655 54.6432749,29.1155 52.9964912,29.1155 Z M52.9964912,25.1905 C52.4974659,25.1905 52.0732943,25.6155 52.0732943,26.1155 C52.0732943,26.6155 52.4974659,27.0405 52.9964912,27.0405 C53.4955166,27.0405 53.9196881,26.6155 53.9196881,26.1155 C53.9196881,25.5905 53.4955166,25.1905 52.9964912,25.1905 Z" id="Shape" fill="#4B31AA" fill-rule="nonzero"></path>
                            </g>
                            <g id="1032033" transform="translate(20.000000, 45.000000)">
                                <g id="Group" transform="translate(0.904483, 0.912621)">
                                    <g transform="translate(1.000000, 0.000000)" id="Path">
                                        <path d="M1.02511891,0.0608033981 L8.7434152,0.0608033981 C9.27626901,0.0608033981 9.70815984,0.496694175 9.70815984,1.03422816 L9.70815984,4.92815534 C9.70815984,5.4658034 9.27626901,5.9015801 8.7434152,5.9015801 L1.02511891,5.9015801 C0.492265107,5.9015801 0.060374269,5.46568932 0.060374269,4.92815534 L0.060374269,1.03434223 C0.0602612086,0.496694175 0.492265107,0.0608033981 1.02511891,0.0608033981 Z" fill="#A4C2F7"></path>
                                        <path d="M1.02511891,19.5300971 L8.7434152,19.5300971 C9.27626901,19.5300971 9.70815984,19.9659879 9.70815984,20.5035218 L9.70815984,24.397335 C9.70815984,24.934983 9.27626901,25.3707597 8.7434152,25.3707597 L1.02511891,25.3707597 C0.492265107,25.3707597 0.060374269,24.9348689 0.060374269,24.397335 L0.060374269,20.5035218 C0.0602612086,19.9659879 0.492265107,19.5300971 1.02511891,19.5300971 Z" fill="#A4C2F7"></path>
                                        <path d="M24.1798947,0.0608033981 L31.898191,0.0608033981 C32.4310448,0.0608033981 32.8629357,0.496694175 32.8629357,1.03422816 L32.8629357,4.92815534 C32.8629357,5.4658034 32.4309318,5.9015801 31.898191,5.9015801 L24.1798947,5.9015801 C23.6470409,5.9015801 23.2151501,5.46568932 23.2151501,4.92815534 L23.2151501,1.03434223 C23.215037,0.496694175 23.6470409,0.0608033981 24.1798947,0.0608033981 Z" fill="#A4C2F7"></path>
                                        <path d="M47.3346706,0.0608033981 L55.0529669,0.0608033981 C55.5858207,0.0608033981 56.0177115,0.496694175 56.0177115,1.03422816 L56.0177115,4.92815534 C56.0177115,5.4658034 55.5857076,5.9015801 55.0529669,5.9015801 L47.3346706,5.9015801 C46.8018168,5.9015801 46.3699259,5.46568932 46.3699259,4.92815534 L46.3699259,1.03434223 C46.3698129,0.496694175 46.8018168,0.0608033981 47.3346706,0.0608033981 Z" fill="#A4C2F7"></path>
                                        <path d="M47.3346706,19.5300971 L55.0529669,19.5300971 C55.5858207,19.5300971 56.0177115,19.9659879 56.0177115,20.5035218 L56.0177115,24.397335 C56.0177115,24.934983 55.5857076,25.3707597 55.0529669,25.3707597 L47.3346706,25.3707597 C46.8018168,25.3707597 46.3699259,24.9348689 46.3699259,24.397335 L46.3699259,20.5035218 C46.3698129,19.9659879 46.8018168,19.5300971 47.3346706,19.5300971 Z" fill="#A4C2F7"></path>
                                        <path d="M24.1798947,19.5300971 L31.898191,19.5300971 C32.4310448,19.5300971 32.8629357,19.9659879 32.8629357,20.5035218 L32.8629357,24.397335 C32.8629357,24.934983 32.4309318,25.3707597 31.898191,25.3707597 L24.1798947,25.3707597 C23.6470409,25.3707597 23.2151501,24.9348689 23.2151501,24.397335 L23.2151501,20.5035218 C23.215037,19.9659879 23.6470409,19.5300971 24.1798947,19.5300971 Z" fill="#A4C2F7"></path>
                                        <path d="M1.02511891,38.9993908 L8.7434152,38.9993908 C9.27626901,38.9993908 9.70815984,39.4351675 9.70815984,39.9728155 L9.70815984,43.8666286 C9.70815984,44.4042767 9.27626901,44.8400534 8.7434152,44.8400534 L1.02511891,44.8400534 C0.492265107,44.8400534 0.060374269,44.4042767 0.060374269,43.8666286 L0.060374269,39.9728155 C0.0602612086,39.4351675 0.492265107,38.9993908 1.02511891,38.9993908 Z" fill="#F9D015"></path>
                                    </g>
                                    <g fill="#E3E7F2" id="Path">
                                        <path d="M2.02511891,0.0608033981 L6.84906823,0.0608033981 C7.38192203,0.0608033981 7.81381287,0.496694175 7.81381287,1.03422816 L7.81381287,4.92815534 C7.81381287,5.4658034 7.38180897,5.9015801 6.84906823,5.9015801 L2.02511891,5.9015801 C1.49226511,5.9015801 1.06037427,5.46568932 1.06037427,4.92815534 L1.06037427,1.03434223 C1.06026121,0.496694175 1.49226511,0.0608033981 2.02511891,0.0608033981 Z"></path>
                                        <path d="M2.02511891,19.5300971 L6.84906823,19.5300971 C7.38192203,19.5300971 7.81381287,19.9659879 7.81381287,20.5035218 L7.81381287,24.397335 C7.81381287,24.934983 7.38180897,25.3707597 6.84906823,25.3707597 L2.02511891,25.3707597 C1.49226511,25.3707597 1.06037427,24.9348689 1.06037427,24.397335 L1.06037427,20.5035218 C1.06026121,19.9659879 1.49226511,19.5300971 2.02511891,19.5300971 Z"></path>
                                        <path d="M25.1798947,0.0608033981 L30.0038441,0.0608033981 C30.5366979,0.0608033981 30.9685887,0.496694175 30.9685887,1.03422816 L30.9685887,4.92815534 C30.9685887,5.4658034 30.5366979,5.9015801 30.0038441,5.9015801 L25.1798947,5.9015801 C24.6470409,5.9015801 24.2151501,5.46568932 24.2151501,4.92815534 L24.2151501,1.03434223 C24.215037,0.496694175 24.6470409,0.0608033981 25.1798947,0.0608033981 Z"></path>
                                        <path d="M48.3346706,0.0608033981 L53.1586199,0.0608033981 C53.6914737,0.0608033981 54.1233645,0.496694175 54.1233645,1.03422816 L54.1233645,4.92815534 C54.1233645,5.4658034 53.6913606,5.9015801 53.1586199,5.9015801 L48.3346706,5.9015801 C47.8018168,5.9015801 47.3699259,5.46568932 47.3699259,4.92815534 L47.3699259,1.03434223 C47.3698129,0.496694175 47.8018168,0.0608033981 48.3346706,0.0608033981 Z"></path>
                                        <path d="M48.3346706,19.5300971 L53.1586199,19.5300971 C53.6914737,19.5300971 54.1233645,19.9659879 54.1233645,20.5035218 L54.1233645,24.397335 C54.1233645,24.934983 53.6913606,25.3707597 53.1586199,25.3707597 L48.3346706,25.3707597 C47.8018168,25.3707597 47.3699259,24.9348689 47.3699259,24.397335 L47.3699259,20.5035218 C47.3698129,19.9659879 47.8018168,19.5300971 48.3346706,19.5300971 Z"></path>
                                        <path d="M25.1798947,19.5300971 L30.0038441,19.5300971 C30.5366979,19.5300971 30.9685887,19.9659879 30.9685887,20.5035218 L30.9685887,24.397335 C30.9685887,24.934983 30.5366979,25.3707597 30.0038441,25.3707597 L25.1798947,25.3707597 C24.6470409,25.3707597 24.2151501,24.9348689 24.2151501,24.397335 L24.2151501,20.5035218 C24.215037,19.9659879 24.6470409,19.5300971 25.1798947,19.5300971 Z"></path>
                                    </g>
                                    <g transform="translate(1.000000, 0.000000)" fill="#FFFFFF" id="Path">
                                        <path d="M46.3698129,24.397449 C46.3698129,24.9350971 46.8017037,25.3708738 47.3345575,25.3708738 L50.2289045,25.3708738 C49.6960507,25.3708738 49.2641598,24.934983 49.2641598,24.397449 L49.2641598,20.5036359 C49.2641598,19.9659879 49.6960507,19.5302112 50.2289045,19.5302112 L47.3345575,19.5302112 C46.8017037,19.5302112 46.3698129,19.9661019 46.3698129,20.5036359 L46.3698129,24.397449 Z"></path>
                                        <path d="M23.215037,24.397449 C23.215037,24.9350971 23.6470409,25.3708738 24.1797817,25.3708738 L27.0741287,25.3708738 C26.5412749,25.3708738 26.109384,24.934983 26.109384,24.397449 L26.109384,20.5036359 C26.109384,19.9659879 26.5413879,19.5302112 27.0741287,19.5302112 L24.1797817,19.5302112 C23.6469279,19.5302112 23.215037,19.9661019 23.215037,20.5036359 L23.215037,24.397449 Z"></path>
                                        <path d="M27.0742417,0.0608033981 L24.1798947,0.0608033981 C23.6470409,0.0608033981 23.2151501,0.496694175 23.2151501,1.03422816 L23.2151501,4.92815534 C23.2151501,5.4658034 23.647154,5.9015801 24.1798947,5.9015801 L27.0742417,5.9015801 C26.5413879,5.9015801 26.1094971,5.46568932 26.1094971,4.92815534 L26.1094971,1.03434223 C26.109384,0.496694175 26.5413879,0.0608033981 27.0742417,0.0608033981 Z"></path>
                                        <path d="M50.2290175,0.0608033981 L47.3346706,0.0608033981 C46.8018168,0.0608033981 46.3699259,0.496694175 46.3699259,1.03422816 L46.3699259,4.92815534 C46.3699259,5.4658034 46.8018168,5.9015801 47.3346706,5.9015801 L50.2290175,5.9015801 C49.6961637,5.9015801 49.2642729,5.46568932 49.2642729,4.92815534 L49.2642729,1.03434223 C49.2641598,0.496694175 49.6961637,0.0608033981 50.2290175,0.0608033981 Z"></path>
                                        <path d="M1.02511891,25.3708738 L3.91946589,25.3708738 C3.38661209,25.3708738 2.95472125,24.934983 2.95472125,24.397449 L2.95472125,20.5036359 C2.95472125,19.9659879 3.38672515,19.5302112 3.91946589,19.5302112 L1.02511891,19.5302112 C0.492265107,19.5302112 0.060374269,19.9661019 0.060374269,20.5036359 L0.060374269,24.397449 C0.0602612086,24.934983 0.492265107,25.3708738 1.02511891,25.3708738 Z"></path>
                                        <path d="M1.02511891,5.9015801 L3.91946589,5.9015801 C3.38661209,5.9015801 2.95472125,5.46568932 2.95472125,4.92815534 L2.95472125,1.03434223 C2.95472125,0.496694175 3.38672515,0.0609174757 3.91946589,0.0609174757 L1.02511891,0.0609174757 C0.492265107,0.0609174757 0.060374269,0.496808252 0.060374269,1.03434223 L0.060374269,4.92815534 C0.0602612086,5.4658034 0.492265107,5.9015801 1.02511891,5.9015801 Z"></path>
                                    </g>
                                </g>
                                <g id="Group" transform="translate(1.000000, 0.000000)" fill-rule="nonzero">
                                    <g id="Shape">
                                        <path d="M1.92960234,7.78774029 L9.64789864,7.78774029 C10.7136062,7.78774029 11.577501,6.91607282 11.577501,5.8407767 L11.577501,4.86735194 L17.9316101,4.86735194 L16.6839883,6.12597087 C16.4332203,6.37043932 16.3325965,6.73229369 16.4208967,7.07270146 C16.5091969,7.41310922 16.7726277,7.67879612 17.1098869,7.76789078 C17.4471462,7.85698544 17.8058869,7.75545631 18.0481754,7.50243204 L20.9425224,4.58204369 C20.9512281,4.57325971 20.9540546,4.56162379 20.9618558,4.55283981 C21.0425809,4.46979126 21.1079298,4.37293932 21.1548499,4.26661893 C21.1548499,4.25886165 21.1548499,4.24905097 21.160616,4.24038107 C21.1970214,4.14250243 21.2172593,4.03926214 21.220425,3.93476699 C21.2203119,3.90225485 21.2183899,3.86974272 21.2146589,3.83745874 C21.2099103,3.7558932 21.194308,3.67535437 21.1683041,3.59800971 C21.1591462,3.56481311 21.1478402,3.53230097 21.134499,3.50070146 C21.0884834,3.39221359 21.0231345,3.29319417 20.9415049,3.20866262 L18.0471579,0.288274272 C17.6686316,-0.0806529126 17.0668109,-0.0754053398 16.694729,0.30013835 C16.3225341,0.675682039 16.3173333,1.2828034 16.6829708,1.66473544 L17.9314971,2.92038835 L11.5773879,2.92038835 L11.5773879,1.94696359 C11.5773879,0.871667476 10.7134932,0 9.64778558,0 L1.92960234,0 C0.863894737,0 0,0.871667476 0,1.94696359 L0,5.8407767 C0,6.91607282 0.863894737,7.78774029 1.92960234,7.78774029 Z M1.92960234,1.94696359 L9.64789864,1.94696359 L9.64789864,5.8407767 L1.92960234,5.8407767 L1.92960234,1.94696359 Z" fill="#79A1E8"></path>
                                        <path d="M1.92960234,27.2569199 L4.82394932,27.2569199 L4.82394932,33.668199 L3.57644055,32.409466 C3.19791423,32.0405388 2.59609357,32.0457864 2.2240117,32.4213301 C1.85181676,32.7968738 1.84661598,33.4039951 2.21225341,33.7859272 L5.10660039,36.7063155 C5.11530604,36.7150995 5.12683821,36.7179515 5.13554386,36.7258228 C5.21785185,36.8072743 5.31384016,36.8732112 5.41921248,36.9205534 C5.77897076,37.0699951 6.19254581,36.9866044 6.46796101,36.7092816 L9.36230799,33.7888932 C9.72794542,33.4069612 9.72274464,32.7997257 9.35054971,32.4242961 C8.97835478,32.0487524 8.37664717,32.0435049 7.99812086,32.412432 L6.75355166,33.668199 L6.75355166,27.2569199 L9.64789864,27.2569199 C10.7136062,27.2569199 11.577501,26.3852524 11.577501,25.3099563 L11.577501,21.4161432 C11.577501,20.3408471 10.7136062,19.4691796 9.64789864,19.4691796 L1.92960234,19.4691796 C0.863894737,19.4692937 0,20.3409612 0,21.4161432 L0,25.3099563 C0,26.3852524 0.863894737,27.2569199 1.92960234,27.2569199 Z M1.92960234,21.4161432 L9.64789864,21.4161432 L9.64789864,25.3099563 L1.92960234,25.3099563 L1.92960234,21.4161432 Z" fill="#79A1E8"></path>
                                        <path d="M32.8025614,0 L25.0842651,0 C24.0186706,0 23.1547758,0.871667476 23.1547758,1.94696359 L23.1547758,5.8407767 C23.1547758,6.91607282 24.0186706,7.78774029 25.0843782,7.78774029 L32.8026745,7.78774029 C33.8683821,7.78774029 34.7322768,6.91607282 34.7322768,5.8407767 L34.7322768,4.86735194 L41.086386,4.86735194 L39.8387641,6.12597087 C39.5879961,6.37043932 39.4873723,6.73229369 39.5756725,7.07270146 C39.6639727,7.41310922 39.9274035,7.67879612 40.2646628,7.76789078 C40.601922,7.85698544 40.9606628,7.75545631 41.2029513,7.50243204 L44.0972982,4.58204369 C44.1060039,4.57325971 44.1088304,4.56162379 44.1166316,4.55283981 C44.1973567,4.46979126 44.2627057,4.37293932 44.3096257,4.26661893 C44.3096257,4.25886165 44.3096257,4.24905097 44.3153918,4.24038107 C44.3517973,4.14250243 44.3720351,4.03926214 44.3752008,3.93476699 C44.3750877,3.90225485 44.3731657,3.86974272 44.3694347,3.83745874 C44.3646862,3.7558932 44.3490838,3.67535437 44.3230799,3.59800971 C44.313922,3.56481311 44.302616,3.53230097 44.2892749,3.50070146 C44.2432593,3.39221359 44.1779103,3.29319417 44.0962807,3.20866262 L41.2019337,0.288274272 C40.8234074,-0.0806529126 40.2215867,-0.0754053398 39.8495049,0.30013835 C39.4773099,0.675682039 39.4721092,1.2828034 39.8377466,1.66473544 L41.0862729,2.92038835 L34.7321637,2.92038835 L34.7321637,1.94696359 C34.7321637,0.871667476 33.868269,0 32.8025614,0 Z M25.0843782,5.8407767 L25.0843782,1.94696359 L32.8026745,1.94696359 L32.8026745,5.8407767 L25.0843782,5.8407767 Z" fill="#79A1E8"></path>
                                        <path d="M55.9573372,0 L48.2390409,0 C47.1734464,0 46.3095517,0.871667476 46.3095517,1.94696359 L46.3095517,5.8407767 C46.3095517,6.91607282 47.1734464,7.78774029 48.239154,7.78774029 L51.133501,7.78774029 L51.133501,14.1990194 L49.8859922,12.9402864 C49.5074659,12.5713592 48.9056452,12.5766068 48.5335634,12.9521505 C48.1613684,13.3276942 48.1561676,13.9348155 48.5218051,14.3167476 L51.416152,17.2371359 C51.4248577,17.2459199 51.4363899,17.2487718 51.4450955,17.2566432 C51.5274035,17.3380947 51.6233918,17.4040316 51.7287641,17.4513738 C52.0885224,17.6008155 52.5020975,17.5174248 52.7775127,17.2401019 L55.6718596,14.3197136 C56.0374971,13.9377816 56.0322963,13.3305461 55.6601014,12.9551165 C55.2879064,12.5795728 54.6861988,12.5743252 54.3076725,12.9432524 L53.0631033,14.1990194 L53.0631033,7.78774029 L55.9574503,7.78774029 C57.0231579,7.78774029 57.8870526,6.91607282 57.8870526,5.8407767 L57.8870526,1.94696359 C57.8869396,0.871667476 57.0230448,0 55.9573372,0 Z M48.239154,5.8407767 L48.239154,1.94696359 L55.9574503,1.94696359 L55.9574503,5.8407767 L48.239154,5.8407767 Z" fill="#79A1E8"></path>
                                        <path d="M55.9573372,19.4692937 L48.2390409,19.4692937 C47.1733333,19.4692937 46.3094386,20.3409612 46.3094386,21.4162573 L46.3094386,22.389682 L39.9555556,22.389682 L41.2030643,21.130949 C41.5687018,20.749017 41.563501,20.1417816 41.191306,19.7663519 C40.8191111,19.3908083 40.2174035,19.3855607 39.8388772,19.7544879 L36.9445302,22.6748762 C36.8630136,22.7594078 36.7975517,22.8584272 36.7515361,22.966915 C36.7381949,22.9986286 36.7270019,23.0311408 36.717731,23.0642233 C36.6917271,23.141568 36.6762378,23.2221068 36.6713762,23.3036723 C36.6676452,23.3359563 36.6657232,23.3684684 36.6656101,23.4009806 C36.6687758,23.5054757 36.6890136,23.608716 36.7254191,23.7065947 C36.7254191,23.7153786 36.7254191,23.7250752 36.7311852,23.7328325 C36.7779922,23.8391529 36.8433411,23.9360049 36.9241793,24.0190534 C36.9318674,24.0278374 36.934807,24.0394733 36.9435127,24.0482573 L39.8378596,26.9686456 C40.216386,27.3375728 40.8182066,27.3323252 41.1902885,26.9567816 C41.5624834,26.5812379 41.5676842,25.9741165 41.2020468,25.5921845 L39.9555556,24.3365316 L46.3095517,24.3365316 L46.3095517,25.3099563 C46.3095517,26.3852524 47.1734464,27.2569199 48.239154,27.2569199 L55.9574503,27.2569199 C57.0231579,27.2569199 57.8870526,26.3852524 57.8870526,25.3099563 L57.8870526,21.4161432 C57.8869396,20.3409612 57.0230448,19.4692937 55.9573372,19.4692937 Z M48.239154,25.3100704 L48.239154,21.4162573 L55.9574503,21.4162573 L55.9574503,25.3100704 L48.239154,25.3100704 Z" fill="#79A1E8"></path>
                                        <path d="M23.1547758,22.389682 L16.8006667,22.389682 L18.0481754,21.130949 C18.4138129,20.749017 18.4086121,20.1417816 18.0364172,19.7663519 C17.6642222,19.3908083 17.0625146,19.3855607 16.6839883,19.7544879 L13.7896413,22.6748762 C13.7081248,22.7594078 13.6426628,22.8584272 13.5966472,22.966915 C13.583306,22.9986286 13.5721131,23.0311408 13.5628421,23.0642233 C13.5368382,23.141568 13.5213489,23.2221068 13.5164873,23.3036723 C13.5127563,23.3359563 13.5108343,23.3684684 13.5107212,23.4009806 C13.5138869,23.5054757 13.5341248,23.608716 13.5705302,23.7065947 C13.5705302,23.7153786 13.5705302,23.7250752 13.5762963,23.7328325 C13.6231033,23.8391529 13.6884522,23.9360049 13.7692904,24.0190534 C13.7769786,24.0278374 13.7799181,24.0394733 13.7886238,24.0482573 L16.6829708,26.9686456 C17.0614971,27.3375728 17.6633177,27.3323252 18.0353996,26.9567816 C18.4075945,26.5812379 18.4127953,25.9741165 18.0471579,25.5921845 L16.8006667,24.3364175 L23.1547758,24.3364175 L23.1547758,25.3098422 C23.1547758,26.3851383 24.0186706,27.2568058 25.0843782,27.2568058 L32.8026745,27.2568058 C33.8683821,27.2568058 34.7322768,26.3851383 34.7322768,25.3098422 L34.7322768,21.4160291 C34.7322768,20.340733 33.8683821,19.4690655 32.8026745,19.4690655 L25.0843782,19.4690655 C24.0186706,19.4690655 23.1547758,20.340733 23.1547758,21.4160291 L23.1547758,22.389682 Z M25.0843782,21.4161432 L32.8026745,21.4161432 L32.8026745,25.3099563 L25.0843782,25.3099563 L25.0843782,21.4161432 Z" fill="#79A1E8"></path>
                                        <path d="M1.92960234,46.7262136 L9.64789864,46.7262136 C10.7136062,46.7262136 11.577501,45.8545461 11.577501,44.77925 L11.577501,43.8058252 L11.5773879,41.8590898 L11.5773879,40.8854369 C11.5773879,39.8101408 10.7134932,38.9384733 9.64778558,38.9384733 L1.92960234,38.9384733 C0.863894737,38.9384733 0,39.8101408 0,40.8854369 L0,44.77925 C0,45.8545461 0.863894737,46.7262136 1.92960234,46.7262136 Z M1.92960234,40.8854369 L9.64789864,40.8854369 L9.64789864,44.77925 L1.92960234,44.77925 L1.92960234,40.8854369 Z" fill="#7164BF"></path>
                                    </g>
                                </g>
                            </g>
                        </g>
                    </g>
                </g>
            </g>
        </g>
    </g>
</svg>